<?xml version="1.0" encoding="UTF-8"?>
<!DOCTYPE svg PUBLIC "-//W3C//DTD SVG 1.1//EN" "http://www.w3.org/Graphics/SVG/1.1/DTD/svg11.dtd">
<!-- Creator: CorelDRAW -->
<svg xmlns="http://www.w3.org/2000/svg" xml:space="preserve" width="1.66667in" height="1.66667in" version="1.1" style="shape-rendering:geometricPrecision; text-rendering:geometricPrecision; image-rendering:optimizeQuality; fill-rule:evenodd; clip-rule:evenodd"
viewBox="0 0 79.26 79.26"
 xmlns:xlink="http://www.w3.org/1999/xlink"
 xmlns:xodm="http://www.corel.com/coreldraw/odm/2003">
 <defs>
  <style type="text/css">
   <![CDATA[
    .fil0 {fill:none}
    .fil1 {fill:#2B7FFF;fill-rule:nonzero}
   ]]>
  </style>
 </defs>
 <g id="Layer_x0020_1">
  <metadata id="CorelCorpID_0Corel-Layer"/>
  <g id="_2266099571584">
   <rect class="fil0" x="0" y="0" width="79.26" height="79.26"/>
   <path class="fil1" d="M37.49 15.47c0,-1.18 0.96,-2.14 2.14,-2.14 1.18,0 2.14,0.96 2.14,2.14l0 9.15 7.56 -9.51 11.38 -14.3c0.73,-0.92 2.08,-1.08 3,-0.34 0.53,0.42 0.81,1.04 0.81,1.67l0 0 0 28.61 0 28.61c0,1.18 -0.96,2.14 -2.14,2.14 -0.73,0 -1.37,-0.36 -1.76,-0.92l-11.29 -14.2 -7.56 -9.51 0 40.25c0,1.18 -0.96,2.14 -2.14,2.14 -1.18,0 -2.14,-0.96 -2.14,-2.14l0 -40.25 -7.56 9.51 -11.29 14.2c-0.39,0.55 -1.03,0.92 -1.76,0.92 -1.18,0 -2.14,-0.96 -2.14,-2.14l0 -28.61 0 -28.61 0 0c0,-0.63 0.28,-1.25 0.81,-1.67 0.92,-0.73 2.27,-0.58 3,0.34l11.38 14.3 7.56 9.51 0 -9.15zm15.19 2.3l-9.95 12.51c-0.22,0.27 -0.22,0.65 0,0.92l9.95 12.51 7.56 9.51 0 -22.48 0 -22.48 -7.56 9.51zm-16.15 12.51l-9.95 -12.51 -7.56 -9.51 0 22.48 0 22.48 7.56 -9.51 9.95 -12.51c0.22,-0.27 0.22,-0.65 0,-0.92z"/>
  </g>
 </g>
</svg>
